<?xml version="1.0" standalone="no"?>
<!DOCTYPE svg PUBLIC "-//W3C//DTD SVG 20010904//EN"
 "http://www.w3.org/TR/2001/REC-SVG-20010904/DTD/svg10.dtd">
<svg version="1.0" xmlns="http://www.w3.org/2000/svg"
 width="1100.000000pt" height="1100.000000pt" viewBox="0 0 1100.000000 1100.000000"
 preserveAspectRatio="xMidYMid meet">
<metadata>
Created by potrace 1.16, written by Peter Selinger 2001-2019
</metadata>
<g transform="translate(0.000000,1100.000000) scale(0.100000,-0.100000)"
fill="#000000" stroke="none">
<path d="M5345 9934 c-325 -21 -645 -59 -701 -85 -23 -10 -90 -30 -150 -44
-792 -187 -1610 -658 -2199 -1266 -384 -396 -633 -756 -855 -1238 -155 -336
-293 -728 -335 -956 -37 -202 -66 -445 -72 -611 l-6 -152 31 -16 c39 -20 135
-21 155 -2 9 10 16 50 21 123 18 276 86 652 165 908 198 639 454 1109 860
1575 106 122 357 375 481 484 713 629 1563 982 2541 1057 209 16 755 7 944
-16 308 -36 549 -90 835 -185 600 -199 1137 -520 1634 -974 193 -176 518 -553
611 -706 22 -36 70 -108 107 -161 37 -52 96 -151 131 -220 35 -68 89 -171 120
-230 31 -58 64 -134 73 -170 9 -35 31 -91 49 -124 111 -202 231 -699 280
-1155 8 -80 18 -160 21 -177 l5 -33 78 0 c114 0 116 3 115 189 -1 131 -6 170
-48 386 -66 338 -159 669 -239 845 -13 30 -32 82 -42 115 -32 113 -259 544
-394 750 -250 383 -745 916 -1086 1170 -281 209 -778 481 -1150 629 -127 50
-464 156 -655 207 -89 23 -297 54 -470 69 -125 11 -741 21 -855 14z"/>
<path d="M2705 7958 c-99 -52 -171 -123 -213 -208 -97 -198 -48 -395 133 -532
92 -70 37 -66 1188 -78 573 -6 1068 -14 1099 -18 l58 -7 -430 -670 c-237 -368
-444 -689 -460 -713 -54 -77 -179 -116 -471 -147 -81 -8 -155 -18 -165 -22
-52 -20 93 -23 802 -16 689 6 775 8 787 22 8 9 51 77 97 151 46 74 92 144 102
156 10 11 18 23 18 27 0 4 62 104 138 222 75 118 141 224 147 235 5 11 13 20
17 20 5 0 8 5 8 10 0 9 183 306 239 390 10 14 32 52 51 85 18 33 43 72 55 87
13 14 40 57 60 95 21 37 79 131 128 207 110 173 133 218 143 281 4 28 8 52 7
55 0 3 -3 25 -6 50 -3 25 -13 67 -22 93 -9 27 -14 55 -11 63 3 9 1 12 -4 9 -6
-4 -39 20 -74 52 -34 33 -84 72 -111 87 -46 27 -56 29 -219 37 -94 4 -810 10
-1591 13 l-1420 6 -80 -42z"/>
<path d="M10090 5103 c0 -44 -52 -459 -70 -563 -97 -547 -334 -1113 -695
-1655 -194 -291 -561 -693 -840 -920 -251 -205 -543 -390 -850 -540 -586 -287
-947 -384 -1675 -450 -297 -27 -505 -18 -990 41 -318 38 -354 47 -702 163
-314 105 -336 114 -624 258 -243 121 -327 169 -448 254 -348 244 -621 487
-926 824 -159 176 -202 232 -302 385 -106 164 -164 269 -277 501 -237 489
-372 908 -425 1329 -27 205 -42 310 -52 343 -5 15 -19 17 -100 17 -86 0 -95
-2 -90 -17 2 -10 7 -70 11 -133 8 -148 32 -387 46 -464 11 -67 77 -330 108
-440 11 -38 32 -91 46 -118 14 -27 37 -93 51 -146 47 -180 141 -386 300 -659
243 -415 475 -714 829 -1069 226 -227 338 -323 425 -362 32 -15 74 -45 100
-73 32 -35 113 -89 290 -195 346 -207 463 -263 758 -365 191 -66 589 -189 697
-215 312 -75 1017 -111 1390 -70 443 48 652 88 960 181 270 82 344 110 610
239 559 271 957 555 1365 972 442 453 742 915 976 1507 141 355 237 720 299
1132 24 159 16 295 -17 316 -7 5 -50 9 -95 9 -72 0 -83 -2 -83 -17z"/>
<path d="M3915 5102 l-240 -2 -37 -58 c-20 -31 -285 -444 -589 -917 -304 -473
-568 -889 -586 -925 -28 -56 -33 -75 -33 -136 0 -165 105 -356 229 -416 43
-21 50 -21 952 -26 500 -3 909 -3 909 0 0 2 -21 26 -48 54 -64 67 -97 126
-121 219 -27 103 -29 231 -3 238 16 4 16 5 0 6 -22 1 -22 4 -2 72 23 75 68
163 109 208 19 21 35 41 35 45 0 3 -182 6 -405 6 -273 0 -405 3 -405 10 0 6
75 126 167 268 91 141 236 365 321 497 259 402 374 575 382 575 7 0 74 90 107
145 46 75 73 126 71 132 -3 8 -373 10 -813 5z"/>
<path d="M5170 3542 c0 -31 -36 -55 -90 -60 l-50 -4 28 -21 c15 -11 50 -41 77
-66 28 -26 105 -87 172 -136 67 -50 124 -96 127 -102 4 -10 -61 -13 -307 -15
-172 0 -289 -4 -262 -8 28 -3 176 -5 329 -3 l279 2 121 -83 c67 -46 157 -105
201 -131 124 -75 370 -190 470 -219 50 -15 110 -34 135 -43 29 -10 93 -17 180
-20 l135 -4 -80 26 c-178 58 -258 91 -429 176 -99 49 -187 95 -195 102 -9 8
-76 49 -150 93 -74 43 -136 87 -139 97 -2 9 -12 17 -21 17 -40 0 -298 196
-429 327 -52 51 -96 93 -98 93 -2 0 -4 -8 -4 -18z"/>
</g>
</svg>
